<?xml version="1.0" standalone="no"?>
<!DOCTYPE svg PUBLIC "-//W3C//DTD SVG 20010904//EN"
 "http://www.w3.org/TR/2001/REC-SVG-20010904/DTD/svg10.dtd">
<svg version="1.0" xmlns="http://www.w3.org/2000/svg"
 width="533.000000pt" height="379.000000pt" viewBox="0 0 533.000000 379.000000"
 preserveAspectRatio="xMidYMid meet">

<g transform="translate(0.000000,379.000000) scale(0.100000,-0.100000)"
fill="#000000" stroke="none">
<path d="M1995 3603 c-27 -13 -75 -36 -105 -51 -32 -16 -86 -58 -128 -99 -41
-40 -77 -73 -81 -75 -4 -2 -50 -56 -102 -122 -89 -112 -116 -156 -219 -351
-24 -44 -65 -112 -91 -152 -27 -40 -49 -82 -49 -93 0 -12 -8 -32 -18 -45 -10
-12 -24 -42 -31 -66 -8 -24 -42 -120 -76 -214 -35 -93 -65 -183 -68 -200 -3
-16 -13 -61 -22 -100 -40 -170 -51 -285 -27 -292 8 -3 12 10 12 46 0 27 4 53
10 56 6 3 10 21 10 38 0 37 28 174 41 199 5 10 9 31 9 48 0 17 4 38 9 48 11
21 93 243 122 332 11 36 30 77 40 91 10 15 19 36 19 47 0 11 23 55 52 98 28
44 62 104 76 134 14 30 35 69 48 85 12 17 35 57 51 91 31 63 217 304 237 305
6 0 31 25 56 55 46 55 157 134 189 134 9 0 26 7 37 15 10 8 29 15 42 15 12 0
22 5 22 10 0 7 22 10 57 8 l57 -3 18 -50 c10 -27 18 -67 18 -87 0 -20 5 -40
10 -43 24 -15 5 -681 -22 -745 -12 -29 -23 -97 -43 -264 -7 -65 -18 -123 -24
-129 -7 -7 -11 -71 -11 -169 0 -193 6 -208 81 -208 26 0 61 5 76 11 15 6 37
15 48 19 66 26 94 43 130 81 22 23 67 59 100 81 67 43 435 403 472 461 25 39
53 49 53 18 0 -10 -8 -40 -19 -67 -10 -27 -26 -76 -36 -109 -34 -122 -128
-363 -176 -454 -27 -52 -49 -99 -49 -105 0 -6 -19 -51 -43 -100 l-43 -88 -319
-134 c-176 -74 -365 -150 -420 -169 -55 -19 -113 -44 -128 -56 -15 -11 -50
-27 -77 -35 -27 -8 -100 -37 -162 -65 -62 -28 -165 -72 -228 -99 -63 -26 -220
-95 -348 -154 -128 -58 -238 -106 -243 -106 -14 0 -197 -99 -204 -110 -3 -5
-29 -19 -58 -33 -28 -13 -72 -41 -97 -63 -25 -21 -70 -57 -100 -78 -166 -120
-220 -184 -220 -260 0 -33 3 -36 82 -76 46 -24 88 -46 93 -50 32 -24 236 -44
435 -43 316 2 546 37 730 113 30 13 73 29 95 38 94 35 155 76 329 225 102 86
196 162 210 168 13 6 32 27 42 45 10 19 23 34 29 34 5 0 17 11 25 25 21 35
248 344 281 382 15 17 30 42 34 55 4 13 19 37 33 53 14 17 36 53 49 80 13 28
53 104 91 170 l67 119 75 31 c42 16 87 38 100 47 14 9 90 44 170 78 80 33 181
78 225 100 100 49 672 283 742 303 28 9 103 38 166 66 63 28 121 51 128 51 8
0 48 18 89 40 41 22 78 40 83 40 4 0 126 47 270 105 145 58 273 105 286 105
12 0 29 7 37 15 9 8 27 15 42 15 26 1 62 20 62 34 0 11 -93 -5 -117 -20 -12
-8 -31 -14 -42 -14 -11 0 -40 -9 -63 -20 -24 -10 -142 -58 -263 -105 -121 -48
-249 -100 -284 -116 l-64 -30 41 38 c34 32 42 46 42 76 0 53 -19 86 -58 103
-41 17 -141 18 -191 3 -50 -15 -154 -69 -167 -87 -8 -11 -13 -12 -18 -4 -13
22 -37 12 -47 -18 -6 -16 -15 -30 -21 -30 -5 0 -24 -11 -42 -25 -21 -16 -46
-25 -69 -25 -34 0 -37 2 -37 29 0 62 -26 44 -133 -91 -20 -26 -44 -48 -51 -48
-8 0 -21 16 -30 35 -20 42 -36 37 -36 -11 0 -33 -37 -114 -52 -114 -4 0 -8 35
-10 77 -4 93 -17 102 -69 48 -46 -47 -59 -45 -59 10 0 25 5 45 11 45 6 0 9 10
7 23 -6 41 -38 27 -54 -23 -41 -129 -49 -150 -56 -150 -4 0 -19 -24 -33 -53
-15 -29 -35 -58 -46 -65 -17 -11 -19 -9 -19 18 0 16 4 30 9 30 5 0 11 13 14
29 3 16 13 36 22 44 8 9 15 20 15 26 0 5 10 26 21 46 15 25 19 39 11 47 -7 7
-15 2 -26 -16 -9 -14 -24 -38 -33 -53 -39 -64 -63 -120 -63 -149 0 -31 -2 -32
-52 -38 -98 -11 -143 -21 -140 -31 1 -5 24 -9 50 -8 139 8 212 15 212 23 0 9
133 30 195 30 24 0 46 4 49 9 3 4 27 11 53 14 68 7 165 28 185 38 10 5 26 9
37 9 10 0 70 13 132 30 63 16 130 29 149 29 33 -1 32 -2 -20 -19 -73 -23 -631
-254 -695 -287 -27 -14 -124 -57 -215 -95 -91 -38 -181 -80 -200 -93 -28 -19
-110 -55 -126 -55 -6 0 44 102 55 113 6 6 11 21 11 34 0 12 22 64 49 115 48
91 142 333 176 453 10 33 26 82 36 109 11 27 19 57 19 68 0 37 49 138 94 194
25 31 46 60 46 65 0 5 7 9 15 9 8 0 15 5 15 12 0 6 6 19 13 27 19 23 41 97 33
110 -12 19 -61 12 -83 -11 -29 -32 -89 -157 -96 -202 -4 -24 -21 -55 -47 -84
-23 -26 -58 -66 -78 -90 -91 -107 -443 -449 -507 -492 -38 -26 -81 -60 -95
-75 -27 -30 -75 -56 -142 -80 -61 -21 -105 -19 -118 4 -13 25 -13 304 0 317 5
5 17 66 25 134 27 218 30 237 41 251 30 38 43 692 17 824 -14 66 -41 137 -56
147 -7 4 -41 7 -77 7 -48 -1 -78 -7 -115 -26z m1289 -680 c-9 -21 -26 -49 -39
-63 -12 -14 -27 -34 -33 -45 -11 -20 -11 -20 -12 0 0 27 52 125 68 125 6 0 12
5 12 10 0 6 4 10 9 10 6 0 3 -17 -5 -37z m1099 -385 c29 -15 46 -39 47 -64 0
-31 -73 -110 -109 -117 -17 -4 -40 -16 -51 -27 -12 -12 -40 -28 -63 -37 -39
-14 -63 -19 -199 -42 -29 -5 -93 -19 -143 -31 -49 -12 -108 -26 -130 -30 -22
-5 -76 -17 -121 -27 l-81 -19 26 48 c23 44 29 48 62 48 34 0 79 26 79 46 0 5
15 25 33 44 19 19 37 42 40 50 4 13 6 12 6 -1 1 -9 8 -20 17 -23 30 -12 95 -6
120 10 23 16 26 16 37 0 15 -21 44 -12 52 15 4 10 11 19 16 19 5 0 9 7 9 16 0
9 9 18 20 21 11 3 20 12 20 19 0 8 12 19 27 25 15 6 30 13 33 17 10 14 50 32
69 32 11 0 23 5 26 10 9 14 131 13 158 -2z m-913 -312 c0 -37 5 -68 11 -72 21
-13 -45 -31 -136 -37 -49 -3 -84 -4 -77 -1 6 3 12 14 12 23 0 10 9 28 19 40
11 13 23 36 26 53 5 22 10 27 18 19 12 -12 66 -15 83 -3 6 4 13 15 17 25 14
37 27 15 27 -47z m640 10 c0 -2 -9 -6 -20 -9 -11 -3 -18 -1 -14 4 5 9 34 13
34 5z m-1477 -730 c-26 -48 -61 -113 -78 -146 -16 -32 -40 -69 -52 -82 -12
-13 -26 -35 -32 -50 -9 -24 -62 -99 -254 -356 -97 -131 -133 -171 -184 -205
-17 -12 -104 -85 -193 -162 -164 -141 -216 -176 -325 -216 -33 -12 -85 -32
-115 -45 -68 -29 -163 -54 -255 -66 -200 -26 -255 -30 -425 -31 -167 -2 -272
7 -380 30 -19 5 -73 28 -119 52 -82 44 -83 45 -78 77 6 38 36 83 55 84 6 0 12
7 12 15 0 9 7 18 15 22 9 3 28 17 43 32 24 23 75 61 240 183 21 15 48 30 62
33 14 4 32 13 41 21 29 26 127 82 176 100 26 10 156 67 288 127 132 60 287
129 345 152 58 24 156 66 218 94 62 28 131 55 153 61 22 6 56 22 76 36 20 13
67 34 104 45 37 11 211 80 386 154 175 73 320 131 321 130 2 -2 -18 -42 -45
-89z"/>
</g>
</svg>
